<svg xmlns="http://www.w3.org/2000/svg" version="1.1" xmlns:xlink="http://www.w3.org/1999/xlink" xmlns:svgjs="http://svgjs.dev/svgjs" width="2000" height="510" viewBox="0 0 2000 510"><g transform="matrix(1,0,0,1,-1.2121212121212466,-0.2616674426277825)"><svg viewBox="0 0 396 101" data-background-color="#00a9ff" preserveAspectRatio="xMidYMid meet" height="510" width="2000" xmlns="http://www.w3.org/2000/svg" xmlns:xlink="http://www.w3.org/1999/xlink"><g id="tight-bounds" transform="matrix(1,0,0,1,0.2400000000000091,0.05182041510863655)"><svg viewBox="0 0 395.52 100.89635916978271" height="100.89635916978271" width="395.52"><g><svg viewBox="0 0 395.52 100.89635916978271" height="100.89635916978271" width="395.52"><g><svg viewBox="0 0 579.1967583744507 147.7519320462238" height="100.89635916978271" width="395.52"><g transform="matrix(1,0,0,1,0,20.420129537502717)"><svg viewBox="0 0 395.52 106.91167297121837" height="106.91167297121837" width="395.52"><g id="textblocktransform"><svg viewBox="0 0 395.52 106.91167297121837" height="106.91167297121837" width="395.52" id="textblock"><g><svg viewBox="0 0 395.52 106.91167297121837" height="106.91167297121837" width="395.52"><rect width="395.52" height="106.91167297121837" x="0" y="0" opacity="1" fill="#000000" data-fill-palette-color="tertiary"></rect><g transform="matrix(1,0,0,1,23.607599999999998,23.6076)"><svg width="348.3048" viewBox="1 -38.9 231.04 39.6" height="59.69647297121836" data-palette-color="#dde6ed"><path d="M1 0L1-8.2 3.5-8.2 3.5-30.7 1-30.7 1-38.9 22.95-38.9Q29.4-38.9 32.8-36.13 36.2-33.35 36.2-27.15L36.2-27.15Q36.2-20.95 32.8-18.18 29.4-15.4 22.95-15.4L22.95-15.4 17.5-15.4 17.5-8.2 22.3-8.2 22.3 0 1 0ZM17.5-22.5L19.2-22.5Q22.1-22.5 22.1-25.7L22.1-25.7 22.1-27.5Q22.1-29.15 21.38-29.93 20.65-30.7 19.2-30.7L19.2-30.7 17.5-30.7 17.5-22.5ZM56.6 0.7Q48.75 0.7 44.47-2.75 40.2-6.2 40.2-13.95L40.2-13.95 40.2-30.7 37.7-30.7 37.7-38.9 56.2-38.9 56.2-30.7 54.2-30.7 54.2-11.4Q54.2-9.75 54.92-8.97 55.65-8.2 57.1-8.2L57.1-8.2Q58.55-8.2 59.27-8.97 60-9.75 60-11.4L60-11.4 60-30.7 58-30.7 58-38.9 75.15-38.9 75.15-30.7 72.65-30.7 72.65-13.95Q72.65-6.2 68.5-2.75 64.35 0.7 56.6 0.7L56.6 0.7ZM76.95 0L76.95-8.2 79.45-8.2 79.45-30.7 76.95-30.7 76.95-38.9 98.9-38.9Q105.35-38.9 108.75-36.13 112.15-33.35 112.15-27.15L112.15-27.15Q112.15-20.95 108.75-18.18 105.35-15.4 98.9-15.4L98.9-15.4 93.45-15.4 93.45-8.2 98.25-8.2 98.25 0 76.95 0ZM93.45-22.5L95.15-22.5Q98.05-22.5 98.05-25.7L98.05-25.7 98.05-27.5Q98.05-29.15 97.32-29.93 96.6-30.7 95.15-30.7L95.15-30.7 93.45-30.7 93.45-22.5ZM153.84-38.9L153.84-30.7 151.34-30.7 151.34-8.2 153.84-8.2 153.84 0 134.94 0 134.94-8.2 137.34-8.2 137.34-16.45 130.34-16.45 130.34-8.2 132.74-8.2 132.74 0 113.84 0 113.84-8.2 116.34-8.2 116.34-30.7 113.84-30.7 113.84-38.9 132.74-38.9 132.74-30.7 130.34-30.7 130.34-23.1 137.34-23.1 137.34-30.7 134.94-30.7 134.94-38.9 153.84-38.9ZM174.54 0.7Q166.69 0.7 162.41-2.75 158.14-6.2 158.14-13.95L158.14-13.95 158.14-30.7 155.64-30.7 155.64-38.9 174.14-38.9 174.14-30.7 172.14-30.7 172.14-11.4Q172.14-9.75 172.87-8.97 173.59-8.2 175.04-8.2L175.04-8.2Q176.49-8.2 177.22-8.97 177.94-9.75 177.94-11.4L177.94-11.4 177.94-30.7 175.94-30.7 175.94-38.9 193.09-38.9 193.09-30.7 190.59-30.7 190.59-13.95Q190.59-6.2 186.44-2.75 182.29 0.7 174.54 0.7L174.54 0.7ZM194.89 0L194.89-8.2 197.39-8.2 197.39-30.7 194.89-30.7 194.89-38.9 217.84-38.9Q224.09-38.9 227.59-36.35 231.09-33.8 231.09-29.05L231.09-29.05Q231.09-26.1 229.69-24.08 228.29-22.05 226.41-21.03 224.54-20 222.79-19.65L222.79-19.65 222.79-19.15Q226.34-18.8 229.19-16.9 232.04-15 232.04-10.1L232.04-10.1Q232.04-4.85 228.09-2.43 224.14 0 217.84 0L217.84 0 194.89 0ZM211.39-22.5L214.09-22.5Q215.54-22.5 216.26-23.28 216.99-24.05 216.99-25.7L216.99-25.7 216.99-27.5Q216.99-29.15 216.26-29.93 215.54-30.7 214.09-30.7L214.09-30.7 211.39-30.7 211.39-22.5ZM211.39-8.2L214.44-8.2Q215.89-8.2 216.61-8.97 217.34-9.75 217.34-11.4L217.34-11.4 217.34-13.6Q217.34-15.25 216.61-16.03 215.89-16.8 214.44-16.8L214.44-16.8 211.39-16.8 211.39-8.2Z" opacity="1" transform="matrix(1,0,0,1,0,0)" fill="#ffffff" class="wordmark-text-0" data-fill-palette-color="quaternary" id="text-0"></path></svg></g></svg></g></svg></g></svg></g><g transform="matrix(1,0,0,1,407.3238,0)"><svg viewBox="0 0 171.87295837445077 147.7519320462238" height="147.7519320462238" width="171.87295837445077"><g><svg xmlns="http://www.w3.org/2000/svg" xmlns:xlink="http://www.w3.org/1999/xlink" version="1.1" x="0" y="0" viewBox="4.554412658200038 8.831039479304424 93.08528808994215 80.02149547227893" enable-background="new 0 0 100 100" xml:space="preserve" height="147.7519320462238" width="171.87295837445077" class="icon-icon-0" data-fill-palette-color="accent" id="icon-0"><path fill-rule="evenodd" clip-rule="evenodd" d="M34.094 78.413C33.856 78.028 33.571 78.016 33.296 78.044 32.546 78.127 31.797 78.232 31.05 78.331 30.641 78.389 30.236 78.485 29.826 78.503 28.484 78.569 27.138 78.557 25.809 78.796 24.996 78.943 24.187 79.108 23.376 79.258 23.072 79.316 22.765 79.394 22.459 79.396 20.116 79.412 17.772 79.405 15.429 79.412A3.2 3.2 0 0 1 13.937 79.063C13.635 78.91 13.294 78.825 12.964 78.733A1.2 1.2 0 0 0 11.798 78.977C11.445 79.28 11.045 79.441 10.603 79.553A3.3 3.3 0 0 0 9.742 79.898C9.049 80.313 8.298 80.319 7.536 80.262 7.082 80.231 6.842 80.005 6.825 79.535A28 28 0 0 1 6.834 77.263C6.856 76.812 7.019 76.389 7.342 76.043 7.507 75.868 7.659 75.68 7.809 75.489 8.266 74.908 8.868 74.629 9.602 74.616 9.913 74.611 10.222 74.595 10.533 74.595 13.257 74.6 15.981 74.6 18.704 74.61 19.537 74.614 20.348 74.542 21.138 74.234 21.581 74.061 22.068 73.977 22.543 73.912 23.035 73.843 23.465 73.682 23.876 73.401 24.839 72.74 25.797 72.068 26.808 71.489 27.373 71.165 27.919 70.808 28.48 70.484 29.55 69.862 30.301 68.93 31.063 68 31.127 67.921 31.172 67.824 31.215 67.731 31.513 67.074 31.825 66.422 32.1 65.756 32.283 65.308 32.478 64.874 32.761 64.477A1.55 1.55 0 0 0 33.018 63.709C33.031 63.49 32.959 63.202 32.815 63.046 32.009 62.195 31.151 61.4 30.04 60.943A7 7 0 0 1 29.293 60.59C28.546 60.178 27.767 60.145 26.998 60.458 26.206 60.777 25.355 61.002 24.714 61.626A0.6 0.6 0 0 1 24.546 61.747C23.684 62.083 22.829 62.441 21.954 62.739 21.528 62.884 21.108 63.002 20.743 63.284 20.531 63.45 20.261 63.543 20.016 63.665 19.681 63.834 19.344 63.993 19.008 64.163 18.763 64.283 18.533 64.455 18.276 64.53 17.903 64.633 17.562 64.774 17.271 65.032 17.22 65.079 17.166 65.133 17.104 65.151 16.018 65.469 15.071 66.162 13.92 66.312A21 21 0 0 0 12.192 66.624 8 8 0 0 1 10.244 66.81 28 28 0 0 0 7.969 66.821C7.459 66.846 7.019 66.719 6.613 66.427 5.278 65.46 4.419 64.208 4.572 62.504 4.644 61.694 4.877 60.872 5.191 60.12 5.422 59.568 5.886 59.103 6.276 58.627 6.603 58.226 6.951 57.841 7.329 57.489 8.426 56.464 9.21 55.215 9.962 53.938 10.251 53.446 10.294 52.892 10.294 52.335 10.294 51.06 10.292 49.784 10.294 48.509 10.294 48.198 10.296 47.887 10.308 47.576 10.329 47.055 10.446 46.565 10.721 46.103 11.159 45.365 11.389 44.517 11.935 43.83 12.834 42.698 13.732 41.569 14.832 40.622 15.223 40.287 15.604 39.938 16.016 39.631A38 38 0 0 1 18.929 37.711C19.924 37.107 21.016 36.835 22.059 36.417 23.036 36.027 24.099 36.175 25.125 36.324 25.636 36.397 26.137 36.537 26.641 36.65 27.583 36.859 28.531 37.025 29.5 37.083 30.01 37.113 30.529 37.214 31.016 37.373 31.841 37.642 32.668 37.869 33.538 37.895 34.023 37.909 34.397 38.103 34.689 38.482 35.364 39.354 36.029 40.216 36.204 41.368 36.333 42.216 36.571 43.043 36.57 43.917 36.57 44.82 36.489 45.699 36.23 46.568 36.104 46.993 36.074 47.449 35.996 47.887 35.96 48.092 35.977 48.344 35.861 48.482 35.436 48.993 35.247 49.637 34.867 50.157 34.425 50.763 34.009 51.405 33.418 51.891 32.89 52.326 32.418 52.837 31.793 53.141 30.998 53.532 30.784 53.494 30.143 52.892 29.065 51.878 28.002 50.848 26.898 49.862 26.231 49.27 25.522 48.725 24.94 48.04A27 27 0 0 1 23.321 45.917C22.852 45.232 22.617 44.534 22.472 43.744 22.335 43.002 22.1 42.276 21.874 41.553 21.686 40.949 21.603 40.881 20.993 40.463 20.569 40.564 20.388 40.889 20.33 41.28 20.191 42.239 20.123 43.221 20.352 44.158 20.512 44.811 20.852 45.45 21.235 46.012 21.794 46.835 22.433 47.607 23.092 48.353 23.638 48.97 24.252 49.529 24.855 50.094A22 22 0 0 1 27.815 53.528C27.991 53.777 28.119 54.065 28.253 54.344 28.462 54.776 28.648 55.222 28.863 55.655 29.202 56.33 29.861 56.554 30.495 56.155 31.712 55.384 32.96 54.647 33.988 53.622 34.571 53.04 35.089 52.393 35.624 51.766 35.868 51.481 36.114 51.191 36.308 50.871 36.713 50.2 37.183 49.544 37.443 48.817 37.686 48.139 37.863 47.449 38.202 46.801 38.369 46.483 38.394 46.068 38.406 45.693 38.44 44.557 38.434 43.419 38.448 42.282 38.452 41.983 38.365 41.652 38.732 41.417 38.83 41.469 38.957 41.516 39.057 41.597 39.508 41.967 39.941 42.361 40.402 42.716 40.644 42.902 40.928 43.038 41.201 43.179 41.413 43.291 41.671 43.336 41.855 43.48 42.524 43.999 43.289 44.116 44.098 44.106 44.581 44.101 45.064 44.11 45.547 44.111 46.349 44.111 47.079 43.897 47.832 43.581 49.651 42.817 51.113 41.581 52.559 40.301 53.769 39.228 54.98 38.156 56.186 37.078 57.006 36.345 57.817 35.602 58.632 34.862 58.708 34.793 58.776 34.709 58.856 34.647 60.385 33.478 61.888 32.272 63.458 31.162A68 68 0 0 1 66.018 29.441C66.71 28.999 67.444 28.626 68.147 28.2A36 36 0 0 0 70.135 26.926C70.485 26.681 70.838 26.511 71.258 26.444 71.63 26.385 71.993 26.256 72.365 26.2 73.485 26.033 74.573 25.656 75.721 25.702 76.234 25.723 76.75 25.783 77.256 25.874 78.408 26.082 79.555 26.317 80.704 26.541 80.874 26.574 81.06 26.575 81.207 26.65 82.218 27.167 83.354 27.369 84.348 27.931 85.264 28.447 86.167 28.505 87.036 27.782 87.56 27.344 88.208 27.066 88.649 26.508 89.268 25.728 89.978 25.014 90.261 24.018A0.4 0.4 0 0 1 90.301 23.923C91.32 22.313 91.047 20.547 90.906 18.802A1.9 1.9 0 0 0 90.705 18.111C90.193 17.095 89.653 16.081 88.899 15.234 88.306 14.571 87.554 14.058 86.724 13.696 86.377 13.545 86 13.454 85.672 13.273 85.077 12.949 84.45 12.819 83.783 12.822 82.852 12.824 81.922 12.824 80.991 12.822 80.185 12.822 79.427 13.045 78.667 13.275 78.039 13.463 77.405 13.623 76.771 13.781 76.65 13.811 76.511 13.772 76.304 13.761 76.376 13.55 76.392 13.371 76.485 13.253 77.278 12.246 78.235 11.415 79.257 10.649 79.844 10.21 80.442 9.824 81.178 9.697A0.7 0.7 0 0 0 81.458 9.569C82.203 9.055 83.066 9.027 83.922 8.908 85.274 8.72 86.602 8.922 87.937 9.031 88.424 9.071 88.888 9.173 89.289 9.486 89.395 9.57 89.516 9.654 89.644 9.694 90.897 10.077 91.871 10.923 92.841 11.725 93.876 12.579 94.796 13.595 95.45 14.77 95.913 15.603 96.47 16.413 96.692 17.37 96.726 17.504 96.757 17.649 96.834 17.759 97.523 18.751 97.526 19.913 97.587 21.039 97.66 22.414 97.676 23.793 97.511 25.17 97.437 25.801 97.27 26.376 96.946 26.919 96.682 27.361 96.493 27.851 96.198 28.271A8 8 0 0 1 93.901 30.475C93.38 30.804 92.915 31.19 92.312 31.406 91.805 31.587 91.363 31.951 90.904 32.255 90.558 32.483 90.466 32.922 90.702 33.366 90.991 33.911 91.291 34.463 91.665 34.951 91.962 35.344 92.207 35.742 92.346 36.212 92.373 36.311 92.408 36.413 92.462 36.498 93.122 37.56 93.068 38.736 93.022 39.911 93.021 39.945 93.021 39.981 93.012 40.014 92.627 41.293 92.343 42.608 91.676 43.786 91.608 43.906 91.495 44.012 91.463 44.138 91.218 45.108 90.533 45.809 89.991 46.597 89.582 47.192 89.211 47.811 88.808 48.411 88.025 49.58 87.225 50.74 86.442 51.909 86.309 52.109 86.224 52.339 86.113 52.552 86.004 52.764 85.928 53.015 85.77 53.181 85.446 53.516 85.326 53.947 85.109 54.329 84.646 55.143 84.287 55.982 84.1 56.899 83.463 57.836 83.428 58.9 83.438 59.98 83.439 60.153 83.453 60.327 83.437 60.496 83.285 62.045 83.94 63.313 84.84 64.483 85.427 65.246 86.087 65.955 86.656 66.731 87.223 67.504 87.76 68.302 87.892 69.306 87.953 69.777 88.115 70.244 88.293 70.684 88.466 71.109 88.601 71.53 88.615 71.982 88.65 73.151 88.686 74.322 88.703 75.495A2.5 2.5 0 0 1 88.223 77.045C87.982 77.376 87.822 77.766 87.602 78.117A23.5 23.5 0 0 1 84 82.495C83.626 82.855 83.221 83.163 82.708 83.159 81.156 83.141 79.704 83.342 78.152 83.362 77.049 83.38 75.804 83.345 74.707 83.425 74.338 83.452 73.989 83.421 73.627 83.535 72.955 83.748 72.697 83.461 72.613 82.75 72.556 82.269 72.645 81.896 73.078 81.583 73.462 81.3 73.764 80.907 74.256 80.779 74.383 80.746 74.494 80.641 74.61 80.57 74.667 80.529 74.711 80.468 74.771 80.439 76.072 79.836 77.308 79.038 78.834 79.134 79.039 79.148 79.247 79.143 79.454 79.134 79.895 79.114 80.207 78.905 80.498 78.561 81.129 77.81 81.549 76.943 81.966 76.078 82.34 75.308 82.294 74.466 82.129 73.643 82.027 73.134 81.662 72.906 81.14 72.942 80.612 72.982 80.133 73.182 79.705 73.482 79.2 73.84 78.7 74.205 78.237 74.61A1.6 1.6 0 0 1 77.108 75.027C76.489 75.02 75.867 75.027 75.247 75.027 73.178 75.027 71.347 74.343 69.042 75.022 68.734 75.022 68.424 75.001 68.119 74.959 67.903 74.929 67.806 74.658 67.918 74.472 67.957 74.412 67.991 74.352 68.036 74.303 68.58 73.727 69.134 73.162 69.666 72.581 69.912 72.309 70.189 72.156 70.559 72.138 72.02 72.069 73.395 71.593 74.788 71.214 75.172 71.111 75.463 70.883 75.751 70.633 76.945 69.6 77.021 69.44 77.034 67.891 77.035 67.789 77.021 67.682 77.036 67.581 77.208 66.244 76.679 65.136 75.812 64.199 75.305 63.648 74.658 63.223 74.051 62.772 72.976 61.975 71.84 61.257 70.808 60.399 70.403 60.061 70.059 59.716 69.811 59.24 69.608 58.853 69.308 58.496 68.991 58.191 68.542 57.759 68.108 57.789 67.757 58.281 66.563 59.967 65.065 61.417 64.008 63.21 63.553 63.982 62.904 64.613 62.265 65.238 61.112 66.374 59.978 67.529 58.697 68.525 57.742 69.261 56.723 69.889 55.673 70.468A0.7 0.7 0 0 1 55.385 70.578C54.488 70.641 53.86 71.233 53.271 71.78 52.652 72.359 52.105 73.04 51.858 73.9 51.715 74.395 51.513 74.873 51.369 75.368 51.255 75.763 51.166 76.166 51.098 76.572 51.024 77.047 51.006 77.533 50.924 78.008 50.877 78.274 50.808 78.568 50.655 78.778 50.277 79.303 50.131 79.894 50.032 80.51 49.928 81.172 49.658 81.756 49.279 82.304 49.031 82.664 48.736 82.898 48.311 83.022A6.2 6.2 0 0 0 47.075 83.525C46.698 83.729 46.3 83.806 45.891 83.86 44.696 84.023 43.478 84.079 42.313 84.36 41.057 84.66 39.787 84.656 38.527 84.81 37.953 84.88 37.377 85.032 36.83 85.227 36.305 85.416 35.784 85.572 35.226 85.585A7.6 7.6 0 0 0 32.606 86.125 5.2 5.2 0 0 1 30.894 86.481 5 5 0 0 0 28.99 86.918 4.7 4.7 0 0 1 27.187 87.331C25.626 87.355 24.112 87.685 22.593 87.996 22.19 88.077 21.781 88.164 21.372 88.19A70 70 0 0 1 18.172 88.35C17.605 88.361 17.075 88.467 16.582 88.733 15.935 89.079 15.458 88.621 15.448 88.035A65 65 0 0 1 15.446 86.275C15.449 85.992 15.524 85.702 15.758 85.537 16.317 85.147 16.738 84.558 17.448 84.382 17.642 84.335 17.85 84.247 18 84.119 18.433 83.745 18.934 83.542 19.479 83.417A1 1 0 0 0 19.859 83.261C20.46 82.788 21.178 82.72 21.896 82.615A12 12 0 0 0 23.708 82.21 9.7 9.7 0 0 1 25.935 81.774C26.731 81.72 27.498 81.542 28.257 81.304 28.814 81.125 29.396 81.039 29.962 80.896 30.359 80.793 30.772 80.708 31.134 80.529 31.573 80.313 32.015 80.122 32.498 80.076 33.204 80.013 33.63 79.635 33.86 78.989 33.934 78.798 34.014 78.609 34.094 78.413" fill="#000000" data-fill-palette-color="accent"></path><g fill="#cdf5fd" data-fill-palette-color="accent"><g fill="#cdf5fd" data-fill-palette-color="accent"><path fill="#000000" d="M14.25 52.5C15.862 52.5 15.862 50 14.25 50S12.638 52.5 14.25 52.5" data-fill-palette-color="accent"></path></g></g></svg></g></svg></g></svg></g></svg></g><defs></defs></svg><rect width="395.52" height="100.89635916978271" fill="none" stroke="none" visibility="hidden"></rect></g></svg></g></svg>